<svg width="18" height="18" viewBox="0 0 18 18" fill="none" xmlns="http://www.w3.org/2000/svg">
<path d="M15.5055 8.37219H12.1231C10.4403 8.37219 9.62823 7.62707 9.62823 6.08659V2.28561C9.62823 0.745125 10.4487 0 12.1231 0H15.5055C17.1883 0 18.0004 0.745125 18.0004 2.28561V6.07821C18.0004 7.62707 17.18 8.37219 15.5055 8.37219ZM12.1231 1.25583C11.0013 1.25583 10.8841 1.57397 10.8841 2.28561V6.07821C10.8841 6.79822 11.0013 7.10799 12.1231 7.10799H15.5055C16.6274 7.10799 16.7446 6.78985 16.7446 6.07821V2.28561C16.7446 1.5656 16.6274 1.25583 15.5055 1.25583H12.1231Z" fill="black"/>
<path d="M15.5055 18.0001H12.1231C10.4403 18.0001 9.62823 17.1796 9.62823 15.5052V12.1228C9.62823 10.44 10.4487 9.62793 12.1231 9.62793H15.5055C17.1883 9.62793 18.0004 10.4484 18.0004 12.1228V15.5052C18.0004 17.1796 17.18 18.0001 15.5055 18.0001ZM12.1231 10.8838C11.1352 10.8838 10.8841 11.1349 10.8841 12.1228V15.5052C10.8841 16.4931 11.1352 16.7443 12.1231 16.7443H15.5055C16.4934 16.7443 16.7446 16.4931 16.7446 15.5052V12.1228C16.7446 11.1349 16.4934 10.8838 15.5055 10.8838H12.1231Z" fill="black"/>
<path d="M5.87728 8.37219H2.49491C0.812103 8.37219 0 7.62707 0 6.08659V2.28561C0 0.745125 0.820475 0 2.49491 0H5.87728C7.56009 0 8.37219 0.745125 8.37219 2.28561V6.07821C8.37219 7.62707 7.55172 8.37219 5.87728 8.37219ZM2.49491 1.25583C1.37304 1.25583 1.25583 1.57397 1.25583 2.28561V6.07821C1.25583 6.79822 1.37304 7.10799 2.49491 7.10799H5.87728C6.99915 7.10799 7.11636 6.78985 7.11636 6.07821V2.28561C7.11636 1.5656 6.99915 1.25583 5.87728 1.25583H2.49491Z" fill="black"/>
<path d="M5.87728 18.0001H2.49491C0.812103 18.0001 0 17.1796 0 15.5052V12.1228C0 10.44 0.820475 9.62793 2.49491 9.62793H5.87728C7.56009 9.62793 8.37219 10.4484 8.37219 12.1228V15.5052C8.37219 17.1796 7.55172 18.0001 5.87728 18.0001ZM2.49491 10.8838C1.50699 10.8838 1.25583 11.1349 1.25583 12.1228V15.5052C1.25583 16.4931 1.50699 16.7443 2.49491 16.7443H5.87728C6.8652 16.7443 7.11636 16.4931 7.11636 15.5052V12.1228C7.11636 11.1349 6.8652 10.8838 5.87728 10.8838H2.49491Z" fill="black"/>
</svg>
